<svg xmlns="http://www.w3.org/2000/svg" width="369" height="240" viewBox="0 0 369 240"><rect x="0.5" y="0.5" width="368" height="239" rx="3" fill="#ffffff" stroke="#dddddd"/><text x="18" y="35" font-family="Arial,sans-serif" font-size="22" fill="#292929">Количество</text><path fill="#FEC820" d="M 184.000,91.000 A 55 55 0 0 1 238.701,151.724 L 215.826,149.331 A 32 32 0 0 0 184.000,114.000 Z"/><path fill="#66C76A" d="M 238.701,151.724 A 55 55 0 1 1 159.563,96.727 L 169.782,117.332 A 32 32 0 1 0 215.826,149.331 Z"/><path fill="#A44646" d="M 159.563,96.727 A 55 55 0 0 1 176.870,91.464 L 179.852,114.270 A 32 32 0 0 0 169.782,117.332 Z"/><path fill="#FF6363" d="M 176.870,91.464 A 55 55 0 0 1 182.213,91.029 L 182.960,114.017 A 32 32 0 0 0 179.852,114.270 Z"/><path fill="#5E2F2F" d="M 182.213,91.029 A 55 55 0 0 1 183.106,91.007 L 183.480,114.004 A 32 32 0 0 0 182.960,114.017 Z"/><path fill="#A3A3A3" d="M 183.106,91.007 A 55 55 0 0 1 184.000,91.000 L 184.000,114.000 A 32 32 0 0 0 183.480,114.004 Z"/><polyline points="224.865,109.189 231.00,96.00 241,96" fill="none" stroke="#FEC820" stroke-width="1.1"/><text x="246" y="100" text-anchor="start" font-family="Arial,sans-serif" font-size="11.5" fill="#555555"><tspan x="246" dy="0">Отменено 1237</tspan></text><polyline points="152.613,191.165 145.00,207.00 135,207" fill="none" stroke="#66C76A" stroke-width="1.1"/><text x="130" y="211" text-anchor="end" font-family="Arial,sans-serif" font-size="11.5" fill="#555555"><tspan x="130" dy="0">Завершено 3063</tspan></text><polyline points="167.999,93.379 155.00,111.00 129,111" fill="none" stroke="#A44646" stroke-width="1.1"/><text x="124" y="101" text-anchor="end" font-family="Arial,sans-serif" font-size="11.5" fill="#555555"><tspan x="124" dy="0">Аварийная</tspan><tspan x="124" dy="14">остановка 244</tspan></text><polyline points="179.536,91.181 170.00,87.00 160,87" fill="none" stroke="#FF6363" stroke-width="1.1"/><text x="155" y="91" text-anchor="end" font-family="Arial,sans-serif" font-size="11.5" fill="#555555"><tspan x="155" dy="0">Ошибка 72</tspan></text><polyline points="182.660,91.016 180.00,73.00 170,73" fill="none" stroke="#5E2F2F" stroke-width="1.1"/><text x="165" y="77" text-anchor="end" font-family="Arial,sans-serif" font-size="11.5" fill="#555555"><tspan x="165" dy="0">Ошибка системы 12</tspan></text><polyline points="183.553,91.002 187.00,57.00 177,57" fill="none" stroke="#A3A3A3" stroke-width="1.1"/><text x="172" y="61" text-anchor="end" font-family="Arial,sans-serif" font-size="11.5" fill="#555555"><tspan x="172" dy="0">Неудачно 12</tspan></text></svg>